# xmcd
#
# Track frame offsets:
#	150
#	15976
#	32484
#	46373
#	63777
#	78739
#	96524
#	110824
#	124417
#	137152
#	153555
#	167119
#	182508
#	196436
#	211989
#	225575
#	244915
#	256122
#
# Disc length: 3602 seconds
#
# Revision: 0
# Processed by: cddbd v1.5.1PL0 Copyright (c) Steve Scherf et al.
# Submitted via: dBpowerAMP V4.0
#
DISCID=f80e1012
DTITLE=Toomas Anni - Tee sinu juurde
DYEAR=2003
DGENRE=Folklore
TTITLE0=Kauneim neiu
TTITLE1=Igatsuse tuul
TTITLE2=Oled nagu ingel
TTITLE3=Koduaia roosid
TTITLE4=Tee sinu juurde
TTITLE5=Tahan tantsida
TTITLE6=Vaata minu poole
TTITLE7=Kallid roosid
TTITLE8=Asjatu on aega püüda
TTITLE9=Kui olen su juures
TTITLE10=Anna mulle lootust
TTITLE11=Vaene mees
TTITLE12=Homme on parem
TTITLE13=Rannamõnud
TTITLE14=Suvepäev
TTITLE15=Kantrimuusika
TTITLE16=Valged linnud
TTITLE17=Vana hea meloodia
EXTD=
EXTT0=
EXTT1=
EXTT2=
EXTT3=
EXTT4=
EXTT5=
EXTT6=
EXTT7=
EXTT8=
EXTT9=
EXTT10=
EXTT11=
EXTT12=
EXTT13=
EXTT14=
EXTT15=
EXTT16=
EXTT17=
PLAYORDER=
